<svg width="24" height="24" viewBox="0 0 24 24" fill="none" xmlns="http://www.w3.org/2000/svg">
  <!-- Apple Calendar Official Logo -->
  <!-- Background -->
  <rect x="3" y="4" width="18" height="17" rx="3" fill="white" stroke="#E5E5E7" stroke-width="0.5"/>
  
  <!-- Header with date -->
  <rect x="3" y="4" width="18" height="5" rx="3" fill="#FF3B30"/>
  <rect x="3" y="7" width="18" height="2" fill="#FF3B30"/>
  
  <!-- Calendar rings -->
  <rect x="7" y="1" width="1.5" height="5" fill="#8E8E93" rx="0.75"/>
  <rect x="15.5" y="1" width="1.5" height="5" fill="#8E8E93" rx="0.75"/>
  
  <!-- Ring holes -->
  <rect x="7.25" y="2.5" width="1" height="1" fill="white" rx="0.5"/>
  <rect x="15.75" y="2.5" width="1" height="1" fill="white" rx="0.5"/>
  
  <!-- Date number -->
  <text x="12" y="7" text-anchor="middle" fill="white" font-family="SF Pro Display, -apple-system, sans-serif" font-size="3" font-weight="600">17</text>
  
  <!-- Calendar grid lines -->
  <line x1="5" y1="11" x2="19" y2="11" stroke="#E5E5E7" stroke-width="0.5"/>
  <line x1="5" y1="13.5" x2="19" y2="13.5" stroke="#E5E5E7" stroke-width="0.5"/>
  <line x1="5" y1="16" x2="19" y2="16" stroke="#E5E5E7" stroke-width="0.5"/>
  <line x1="5" y1="18.5" x2="19" y2="18.5" stroke="#E5E5E7" stroke-width="0.5"/>
  
  <line x1="7.8" y1="9.5" x2="7.8" y2="21" stroke="#E5E5E7" stroke-width="0.5"/>
  <line x1="10.6" y1="9.5" x2="10.6" y2="21" stroke="#E5E5E7" stroke-width="0.5"/>
  <line x1="13.4" y1="9.5" x2="13.4" y2="21" stroke="#E5E5E7" stroke-width="0.5"/>
  <line x1="16.2" y1="9.5" x2="16.2" y2="21" stroke="#E5E5E7" stroke-width="0.5"/>
  
  <!-- Small dots for events -->
  <circle cx="6.4" cy="12.25" r="0.3" fill="#FF3B30"/>
  <circle cx="9.2" cy="15" r="0.3" fill="#007AFF"/>
  <circle cx="14.8" cy="17.25" r="0.3" fill="#34C759"/>
</svg>