<svg width="24" height="24" viewBox="0 0 24 24" fill="none" xmlns="http://www.w3.org/2000/svg">
  <!-- Google Calendar Official Logo -->
  <rect x="3" y="4" width="18" height="16" rx="2" fill="#4285F4" stroke="#4285F4" stroke-width="0.5"/>
  <rect x="3" y="4" width="18" height="4" rx="2" fill="#4285F4"/>
  <rect x="3" y="6" width="18" height="2" fill="#34A853"/>
  
  <!-- Calendar grid -->
  <rect x="5" y="10" width="2" height="2" fill="white" rx="0.5"/>
  <rect x="8" y="10" width="2" height="2" fill="white" rx="0.5"/>
  <rect x="11" y="10" width="2" height="2" fill="white" rx="0.5"/>
  <rect x="14" y="10" width="2" height="2" fill="white" rx="0.5"/>
  <rect x="17" y="10" width="2" height="2" fill="white" rx="0.5"/>
  
  <rect x="5" y="13" width="2" height="2" fill="white" rx="0.5"/>
  <rect x="8" y="13" width="2" height="2" fill="white" rx="0.5"/>
  <rect x="11" y="13" width="2" height="2" fill="#EA4335" rx="0.5"/>
  <rect x="14" y="13" width="2" height="2" fill="white" rx="0.5"/>
  <rect x="17" y="13" width="2" height="2" fill="white" rx="0.5"/>
  
  <rect x="5" y="16" width="2" height="2" fill="white" rx="0.5"/>
  <rect x="8" y="16" width="2" height="2" fill="white" rx="0.5"/>
  <rect x="11" y="16" width="2" height="2" fill="white" rx="0.5"/>
  <rect x="14" y="16" width="2" height="2" fill="white" rx="0.5"/>
  <rect x="17" y="16" width="2" height="2" fill="white" rx="0.5"/>
  
  <!-- Calendar rings -->
  <rect x="7" y="2" width="1" height="4" fill="#5F6368" rx="0.5"/>
  <rect x="16" y="2" width="1" height="4" fill="#5F6368" rx="0.5"/>
</svg>